<svg width="72" height="21" viewBox="0 0 72 21" fill="none" xmlns="http://www.w3.org/2000/svg">
<g clip-path="url(#clip0_470_190)">
<path d="M9.37659 6.74042C9.53845 6.49479 9.7155 6.46351 9.85936 6.46351C10.0031 6.46351 10.2424 6.49479 10.4043 6.74042C11.6797 8.54497 13.7853 12.1392 15.3385 14.7907C16.3513 16.5198 17.1293 17.8477 17.2889 18.0167C17.8879 18.6512 18.7097 18.2557 19.1872 17.5362C19.6573 16.8277 19.7876 16.3302 19.7876 15.7994C19.7876 15.4379 12.9776 2.39386 12.2917 1.30808C11.6322 0.263876 11.4173 0 10.2884 0H9.44367C8.31825 0 8.15555 0.263731 7.49602 1.30808C6.81019 2.394 0 15.4379 0 15.7995C0 16.3302 0.1305 16.8277 0.600469 17.536C1.07803 18.2558 1.89984 18.6512 2.49891 18.0168C2.65852 17.8477 3.43645 16.5198 4.44937 14.7907C6.0023 12.1392 8.10098 8.54483 9.37645 6.74028L9.37659 6.74042ZM54.5403 5.70548C57.3452 5.70548 59.5756 8.31339 59.5756 11.539C59.5756 14.7646 57.3452 17.3954 54.5403 17.3954C53.0384 17.3954 51.868 16.7548 51.117 15.5881V20.8726H48.003V5.93417H51.1172V7.51279C51.8681 6.34606 53.0387 5.70534 54.5404 5.70534L54.5403 5.70548ZM66.3682 5.70548C69.5485 5.70548 72 8.22186 72 11.5619C72 14.9017 69.5483 17.3954 66.3684 17.3954C63.1658 17.3954 60.7364 14.9017 60.7364 11.5617C60.7364 8.22186 63.1658 5.70548 66.3684 5.70548H66.3682ZM33.9965 1.15283V4.40131H27.7906V7.28381H33.312V10.5323H27.7903V13.9179H33.9962V17.1664H24.5218V1.15297H33.9962L33.9965 1.15283ZM39.0637 5.93402L40.8524 8.5877L42.6635 5.93402H46.3739L42.7078 11.3558L46.6388 17.1664H42.8843L40.8305 14.124L38.7765 17.1666H35.0663L38.9752 11.3788L35.3091 5.93417L39.0637 5.93402ZM53.8338 8.77076C52.3098 8.77076 51.1172 9.98325 51.1172 11.5388C51.1172 13.1173 52.3097 14.3069 53.8338 14.3069C55.3355 14.3069 56.5502 13.0944 56.5502 11.5388C56.5502 10.0061 55.3355 8.77076 53.8338 8.77076ZM66.3685 8.79364C64.8883 8.79364 63.7844 9.96037 63.7844 11.5617C63.7844 13.1172 64.8883 14.3069 66.3685 14.3069C67.8258 14.3069 68.9525 13.1173 68.9525 11.5617C68.9525 9.96037 67.8258 8.79364 66.3685 8.79364Z" fill="white"/>
</g>
<defs>
<clipPath id="clip0_470_190">
<rect width="72" height="21" fill="white"/>
</clipPath>
</defs>
</svg>
