<svg width="27" height="36" viewBox="0 0 27 36" fill="none" xmlns="http://www.w3.org/2000/svg">
<path d="M0 29.0254L0.21597 28.7206L10.4299 9.1807L10.4515 8.97383L5.9491 0.446959C5.57168 -0.267297 4.50963 -0.0866818 4.38593 0.712908L0 29.0254Z" fill="#FFC24A"/>
<path d="M0.12793 28.793L0.291204 28.4719L10.3983 9.13672L5.90694 0.57518C5.53369 -0.131589 4.58578 0.0486157 4.4633 0.839795L0.12793 28.793Z" fill="#FFA712"/>
<path d="M13.7338 15.4236L17.0862 11.962L13.7328 5.50769C13.4144 4.89672 12.5256 4.89487 12.2107 5.50769L10.4189 8.95251V9.24584L13.7337 15.4236H13.7338Z" fill="#F4BD62"/>
<path d="M13.6737 15.2794L16.933 11.914L13.6737 5.65691C13.3643 5.06296 12.6124 5.0007 12.3062 5.5964L10.5051 9.09476L10.4512 9.27363L13.6737 15.2794V15.2794Z" fill="#FFA50E"/>
<path d="M0 29.0254L0.097863 28.9261L0.453507 28.7805L13.5233 15.6523L13.6889 15.1978L10.4285 8.93384L0 29.0254Z" fill="#F6820C"/>
<path d="M14.1526 35.6463L25.9811 28.9953L22.6033 8.02145C22.4976 7.36524 21.6991 7.10586 21.2332 7.57632L0 29.0254L11.7607 35.6458C12.1262 35.8515 12.5379 35.9596 12.9566 35.9597C13.3752 35.9598 13.787 35.8519 14.1526 35.6463Z" fill="#FDE068"/>
<path d="M25.8747 28.9395L22.5226 8.12492C22.4178 7.47364 21.7537 7.2042 21.2913 7.67117L0.130859 28.9846L11.7624 35.5393C12.1252 35.7435 12.5337 35.8507 12.9492 35.8509C13.3647 35.851 13.7733 35.7439 14.1362 35.5399L25.8748 28.9394L25.8747 28.9395Z" fill="#FCCA3F"/>
<path d="M14.1524 35.4503C13.7868 35.6558 13.3751 35.7637 12.9564 35.7636C12.5378 35.7635 12.1261 35.6555 11.7606 35.4497L0.0946077 28.9246L0 29.0254L11.7606 35.6457C12.1261 35.8515 12.5378 35.9596 12.9565 35.9597C13.3751 35.9598 13.7869 35.8519 14.1525 35.6462L25.981 28.9953L25.952 28.8156L14.1525 35.4504L14.1524 35.4503Z" fill="#EEAB37"/>
</svg>
