<svg width="25" height="36" viewBox="0 0 25 36" fill="none" xmlns="http://www.w3.org/2000/svg">
<g clip-path="url(#clip0_470_218)">
<path d="M6.80664 26.668C7.83015 27.9948 8.76169 29.3925 9.59449 30.8508C10.3056 32.2224 10.602 33.1524 11.1216 34.8049C11.4403 35.718 11.7284 35.9905 12.3476 35.9905C13.0224 35.9905 13.3286 35.5269 13.5651 34.81C14.0563 33.2493 14.4418 32.0583 15.0498 30.9328C16.243 28.7601 17.7257 26.8293 19.1826 24.9737C19.577 24.4485 22.1269 21.3889 23.2749 18.9748C23.2749 18.9748 24.6858 16.3228 24.6858 12.6191C24.6858 9.1547 23.2944 6.75192 23.2944 6.75192L19.2883 7.8433L16.8554 14.3617L16.2535 15.2605L16.1331 15.4233L15.973 15.6271L15.6921 15.9527L15.2905 16.3611L13.1241 18.1566L7.70767 21.3379L6.80664 26.668Z" fill="#34A853"/>
<path d="M1.21582 18.5289C2.53776 21.6005 5.08695 24.3006 6.81167 26.6701L15.9725 15.6314C15.9725 15.6314 14.6819 17.3484 12.3408 17.3484C9.73307 17.3484 7.62639 15.2301 7.62639 12.559C7.62639 10.7273 8.70967 9.46899 8.70967 9.46899L2.49109 11.164L1.21582 18.5289Z" fill="#FBBC04"/>
<path d="M16.0755 0.567664C19.118 1.56556 21.7222 3.66052 23.2973 6.74976L15.976 15.625C15.976 15.625 17.0593 14.3439 17.0593 12.5236C17.0593 9.79033 14.7968 7.74844 12.3526 7.74844C10.0413 7.74844 8.71387 9.46261 8.71387 9.46261V3.87133L16.0755 0.567566V0.567664Z" fill="#4285F4"/>
<path d="M2.89453 4.48921C4.71173 2.27751 7.9093 0 12.3176 0C14.4564 0 16.0677 0.571193 16.0677 0.571193L8.70676 9.46751H3.49142L2.89453 4.48921Z" fill="#1A73E8"/>
<path d="M1.21616 18.5289C1.21616 18.5289 0 16.1062 0 12.5965C0 9.27926 1.26765 6.37964 2.8943 4.4892L8.71068 9.46828L1.21616 18.5289Z" fill="#EA4335"/>
</g>
<defs>
<clipPath id="clip0_470_218">
<rect width="24.6857" height="36" fill="white"/>
</clipPath>
</defs>
</svg>
