<svg width="36" height="36" viewBox="0 0 36 36" fill="none" xmlns="http://www.w3.org/2000/svg">
<g clip-path="url(#clip0_470_216)">
<path d="M17.7148 0.00281335C14.6143 0.0419071 11.5655 1.08 9.01513 2.82656C3.90903 5.25291 0.438406 10.6833 0.324219 16.3294C0.392844 18.0855 0.204125 19.8495 0.493812 21.5963C1.24306 26.6003 4.58797 31.1296 9.18134 33.2677C13.8417 36.5535 20.3419 36.9042 25.3392 34.166C26.5207 33.4252 27.7725 32.8123 28.9375 32.0437C33.4468 28.9842 36.1113 23.4287 35.6163 17.9952C36.131 12.3089 33.1731 6.48984 28.2822 3.54516C27.3068 2.99222 26.3322 2.448 25.3766 1.86019C23.0354 0.601595 20.3726 -0.0475304 17.7148 0.00281335ZM17.7434 1.08675C18.6473 1.07253 19.5506 1.14087 20.442 1.29094C19.2878 1.22963 18.1524 1.63716 17.0116 1.36744C16.5673 1.30134 15.8914 1.31063 15.5893 1.28166C16.3019 1.16602 17.0217 1.10089 17.7434 1.08675ZM14.9256 2.3985C13.3315 3.07884 11.8656 4.06266 10.6582 5.30803C8.98334 5.71866 7.36053 6.53569 6.01531 7.5375C7.04441 5.97206 8.35531 4.5315 9.96912 3.56653C11.5346 2.88788 13.2187 2.46488 14.9256 2.3985ZM21.0622 2.3985C22.9269 2.50059 24.8312 2.91741 26.4687 3.83006C27.8618 4.83865 29.0529 6.10023 29.9798 7.54903C28.591 6.47606 26.9555 5.74931 25.2891 5.26697C24.089 4.03959 22.6392 3.07238 21.0622 2.3985ZM17.9938 2.60888C19.9341 2.952 21.7867 3.77944 23.3459 4.98263C21.5271 4.83131 19.6579 5.11425 17.9923 5.86969C16.3276 5.11228 14.4596 4.83244 12.6418 4.98291C14.2 3.77972 16.0551 2.952 17.994 2.60916L17.9938 2.60888ZM13.3905 6.02325C14.5195 6.01959 15.6588 6.16275 16.727 6.53766C15.4023 7.30631 14.4742 8.53903 13.3978 9.58838C12.551 10.1447 11.464 10.082 10.4773 10.4459C9.86225 10.6352 9.26291 10.8745 8.6945 11.1755C9.0725 9.35016 9.96913 7.56591 11.2961 6.27497C11.982 6.11409 12.688 6.04997 13.3905 6.02325ZM22.3396 6.02325C23.1654 6.06544 24.0927 6.03197 24.8321 6.37594C26.049 7.70766 26.9625 9.4275 27.2809 11.1684C26.044 10.4884 24.6504 10.2105 23.2872 9.92166C22.6819 9.79453 22.1157 9.17353 21.6916 8.65378C20.984 7.84603 20.1538 7.1055 19.2681 6.53541C20.2505 6.18947 21.3013 6.04406 22.3393 6.02353L22.3396 6.02325ZM9.38778 6.8625C8.32691 8.36297 7.69297 10.161 7.45166 11.9588C5.97959 13.0202 4.81634 14.4911 4.03841 16.1283C3.78444 14.1618 3.97372 12.1087 4.69316 10.2614C5.96328 8.78203 7.58075 7.59797 9.38778 6.8625ZM26.5997 6.8625C28.425 7.61569 30.0971 8.80931 31.3407 10.3416C32.0003 12.1948 32.2088 14.1784 31.9491 16.1283C31.1821 14.4532 29.9289 13.003 28.5027 11.8915C28.3086 10.0907 27.6274 8.34975 26.5997 6.8625ZM17.9887 7.06528C19.5187 7.77628 20.6156 9.10856 21.7425 10.2983C22.539 11.014 23.3682 11.0216 24.3973 11.2812C25.4843 11.5104 26.5407 11.9295 27.4705 12.5415C27.6122 14.245 26.9954 15.8465 26.5317 17.4448C26.2704 18.9278 27.2685 20.2531 27.3788 21.7133C27.4193 22.2944 27.601 22.9925 27.3979 23.5153C26.0094 24.4727 24.33 24.7213 22.7348 25.1258C21.3364 25.6399 20.6859 27.1446 19.4928 27.9771C19.0037 28.3146 18.4753 28.8124 17.9113 28.8993C16.4078 28.1841 15.3539 26.8692 14.2332 25.6998C13.1335 24.7379 11.5239 24.9227 10.2402 24.3335C9.64681 24.0944 8.98869 23.8379 8.51675 23.4301C8.37472 21.7181 9.023 20.1147 9.46766 18.5054C9.67409 17.0443 8.73669 15.7444 8.60366 14.3083C8.52069 13.7219 8.49116 13.1299 8.51731 12.5387C9.87828 11.5892 11.586 11.2714 13.1222 10.9344C13.7728 10.7657 14.529 10.116 15.017 9.47813C15.8568 8.50556 16.8372 7.65113 17.9887 7.06528ZM4.74912 7.52934C4.10394 8.53059 3.86769 9.74475 3.03491 10.6217C2.80878 10.8782 2.34022 11.7385 2.32672 11.6941C2.89475 10.1798 3.71366 8.77172 4.74912 7.52934ZM31.2381 7.52934C32.2928 8.78681 33.1346 10.2631 33.6937 11.7827C33.1728 10.7378 32.2444 9.95456 31.9018 8.82281C31.7013 8.38125 31.4873 7.94559 31.2381 7.52934ZM2.94322 12.8568C2.72778 14.5853 2.87206 16.3569 3.32572 18.0315C2.84562 19.6864 2.74353 21.4391 2.94153 23.146C2.10256 21.4802 1.50772 19.6245 1.48184 17.7517C1.66747 16.0521 2.14869 14.3727 2.94322 12.8568ZM33.0448 12.8568C33.8841 14.5049 34.4449 16.3367 34.5166 18.1893C34.331 19.9114 33.8529 21.6104 33.0465 23.146C33.2434 21.4327 33.1433 19.6726 32.6564 18.0121C33.1326 16.3429 33.251 14.5789 33.0446 12.8568H33.0448ZM7.43366 13.3529C7.41397 14.8489 8.05325 16.3988 8.39694 17.7199C8.48778 18.8376 7.78719 19.8394 7.64853 20.9382C7.52776 21.5031 7.45485 22.0772 7.43056 22.6544C6.03838 21.4197 5.02475 19.7845 4.46478 18.0143C5.00984 16.2309 6.04062 14.5929 7.43366 13.3529ZM28.5541 13.3529C29.9393 14.6073 31.0491 16.2672 31.5044 18.0743C30.9391 19.8222 29.9328 21.4366 28.5541 22.6572C28.5538 21.1365 27.9719 19.7241 27.5911 18.2874C27.4792 17.343 28.0898 16.398 28.2656 15.4074C28.4307 14.7364 28.5392 14.0453 28.5541 13.3529ZM4.03981 19.8852C4.82169 21.5367 6.00547 23.0077 7.48484 24.0826C7.64206 25.8953 8.40397 27.6927 9.37259 29.1468C7.53688 28.3677 5.81703 27.178 4.60878 25.5901C3.99763 23.7603 3.77431 21.8003 4.03981 19.8852ZM31.9483 19.8852C32.1958 21.861 32.0284 23.9535 31.2603 25.7898C29.9919 27.2528 28.3893 28.4192 26.5966 29.1535C27.6288 27.6491 28.3286 25.9006 28.5035 24.0787C29.9874 23.0079 31.165 21.5342 31.9483 19.8852ZM2.29269 24.2291C2.79191 25.2501 3.7175 26.0024 4.04966 27.1024C4.24372 27.5693 4.48841 28.0117 4.72916 28.4552C3.67897 27.2019 2.86362 25.7597 2.29269 24.2291ZM33.6951 24.2291C33.1242 25.76 32.3091 27.2019 31.2586 28.4552C31.7711 27.6798 31.9834 26.7342 32.5057 25.9836C32.9371 25.4233 33.3542 24.8498 33.6951 24.2291ZM8.69084 24.8265C10.006 25.5923 11.5233 25.7828 12.9611 26.1785C13.9646 26.6496 14.5406 27.8393 15.4608 28.5204C15.8554 28.8759 16.2814 29.1947 16.7338 29.473C14.9653 30.0623 13.0055 30.1508 11.208 29.6961C9.96153 28.3371 9.05028 26.6392 8.69084 24.8265ZM27.2972 24.8265C26.9336 26.6543 26.0158 28.357 24.7547 29.7242C22.9502 30.1236 20.9882 30.0738 19.2619 29.4677C20.572 28.7168 21.4911 27.5012 22.5421 26.4569C23.4036 25.8477 24.672 25.918 25.6803 25.5066C26.2392 25.3304 26.7804 25.1027 27.2972 24.8265ZM5.9945 28.4448C7.37403 29.5093 8.98363 30.2766 10.6717 30.7069C11.8676 31.9627 13.3464 32.9288 14.9337 33.6164C13.0415 33.4893 11.0936 33.0975 9.44713 32.1314C8.08953 31.1189 6.90322 29.8766 5.9945 28.4448ZM29.9936 28.4448C28.956 30.0198 27.6395 31.4814 26.0088 32.4453C24.4421 33.1334 22.7631 33.5303 21.054 33.6164C22.6487 32.931 24.1233 31.9478 25.3304 30.7038C27.0118 30.2721 28.6194 29.5068 29.9936 28.4448ZM17.9907 30.1483C19.6596 30.8858 21.5187 31.1749 23.3367 31.0323C21.7524 32.2332 19.8598 33.136 17.886 33.3847C15.9907 33.023 14.1744 32.2133 12.6523 31.0323C14.4691 31.1723 16.322 30.8908 17.9907 30.1483ZM17.994 34.5108C18.7883 34.6497 19.5943 34.7032 20.3996 34.7186C18.8076 34.9938 17.1802 34.9938 15.5882 34.7186C16.3943 34.704 17.1987 34.6486 17.994 34.5108Z" fill="#7B61C1"/>
</g>
<defs>
<clipPath id="clip0_470_216">
<rect width="36" height="36" fill="white"/>
</clipPath>
</defs>
</svg>
