<svg width="36" height="36" viewBox="0 0 36 36" fill="none" xmlns="http://www.w3.org/2000/svg">
<g clip-path="url(#clip0_470_209)">
<path d="M27.5625 0H8.4375C3.7776 0 0 3.7776 0 8.4375V27.5625C0 32.2224 3.7776 36 8.4375 36H27.5625C32.2224 36 36 32.2224 36 27.5625V8.4375C36 3.7776 32.2224 0 27.5625 0Z" fill="#242938"/>
<path d="M18.0005 20.665C19.4495 20.665 20.624 19.4904 20.624 18.0415C20.624 16.5926 19.4495 15.418 18.0005 15.418C16.5516 15.418 15.377 16.5926 15.377 18.0415C15.377 19.4904 16.5516 20.665 18.0005 20.665Z" fill="#00D8FF"/>
<path d="M18.0003 12.7073C21.5227 12.7073 24.7949 13.2127 27.2621 14.0622C30.2348 15.0856 32.0625 16.6368 32.0625 18.0415C32.0625 19.5053 30.1255 21.1532 26.9332 22.2109C24.5198 23.0105 21.3439 23.4279 18.0003 23.4279C14.5721 23.4279 11.3258 23.0361 8.88511 22.202C5.79727 21.1466 3.9375 19.4774 3.9375 18.0415C3.9375 16.6482 5.68266 15.1089 8.61356 14.0871C11.09 13.2237 14.4429 12.7073 17.9997 12.7073H18.0003Z" stroke="#00D8FF" stroke-width="2"/>
<path d="M13.3565 15.3897C15.1163 12.3384 17.1887 9.75628 19.1572 8.04347C21.5287 5.97951 23.7857 5.1712 25.0024 5.87278C26.2704 6.60403 26.7304 9.10547 26.0519 12.3992C25.5393 14.8892 24.3139 17.8488 22.6434 20.7454C20.9307 23.7151 18.9697 26.3316 17.0281 28.0287C14.5713 30.1763 12.196 30.9535 10.9521 30.2362C9.74516 29.5407 9.28362 27.2596 9.86272 24.2101C10.352 21.6335 11.5797 18.471 13.356 15.3897H13.3565Z" stroke="#00D8FF" stroke-width="2"/>
<path d="M13.3614 20.7531C11.5967 17.7052 10.3952 14.6196 9.89373 12.0589C9.29003 8.97341 9.71682 6.61443 10.9325 5.91074C12.1994 5.17724 14.5961 6.02802 17.1107 8.26086C19.012 9.94893 20.9643 12.4882 22.6396 15.382C24.3572 18.3489 25.6444 21.3547 26.1452 23.8843C26.7789 27.0855 26.266 29.5314 25.0233 30.2507C23.8176 30.9487 21.611 30.2098 19.2582 28.185C17.2704 26.4745 15.1435 23.8314 13.3614 20.7531Z" stroke="#00D8FF" stroke-width="2"/>
</g>
<defs>
<clipPath id="clip0_470_209">
<rect width="36" height="36" fill="white"/>
</clipPath>
</defs>
</svg>
